<svg width="1596" height="382" viewBox="0 0 1596 382" fill="none" xmlns="http://www.w3.org/2000/svg">
<path d="M672.5 314C651.5 334 642 380 642 380H1478.5C1478.5 380 1496 314 1485.5 284.5C1476.27 258.574 1418 247.709 1404.01 245.457C1402.04 245.139 1400.17 244.255 1398.67 242.929C1358.68 207.473 1363.22 219.627 1348.5 200C1339.31 187.752 1251 0.5 1231 0.5C1211 0.5 1162 131 1149 138C1130.07 148.193 1077 151.5 1067 164C1057 176.5 1015 219 993.5 220C972 221 921.5 241.5 911 248.5C894.624 259.417 902.333 301.333 879.5 302C879.5 302 693.5 294 672.5 314Z" fill="white"/>
<path d="M735 360C716.5 360.343 726.5 368 661.5 381H865L923 371L1095.5 361.5L1247 364.5L1328.5 369L1401 344L1434.5 308.5L1409.5 251L1375 223.5L1346.5 206.5L1328.5 161C1328.5 158.167 1327 146.6 1313 125C1299 103.4 1287.5 86.1667 1284.5 80L1300.5 116C1303.5 126.667 1308.6 125.5 1313 153.5C1317.4 181.5 1311.17 239.333 1306 241C1301.67 237.5 1283.84 221.418 1262 210.5C1256 207.5 1257 226 1248 226C1245.17 230.667 1223.2 226.4 1214 244C1204.8 261.6 1192 241 1183 241L1166 256.5C1164 254.833 1133 257 1130.5 258.5C1124.54 262.074 1110.5 265 1097.5 265C1093.89 265 1084.17 275.333 1077.5 294.5L1028.5 317H956.5C947.5 324.5 914.8 341.2 856 348C782.5 356.5 753.5 359.657 735 360Z" fill="#85D3F3"/>
<path d="M1241.5 32.5L1232 0L1258.5 8.5L1277.5 41L1303 67V116L1323 171L1318.5 264L1277.5 219.5L1303 165.5L1273 128.5L1258.5 63.5L1241.5 32.5Z" fill="#85D3F3"/>
<path d="M1352 219C1331.5 208.5 1323.5 194.5 1327.5 160L1355 206L1376 215L1403.5 239C1414.83 243.5 1438.9 252.4 1444.5 252C1451.5 251.5 1479 271.5 1486 282.5C1491.6 291.3 1490.67 351.5 1486 380.5H840.5C850.5 376.833 878.6 367.7 911 360.5C943.4 353.3 972.833 351.167 983.5 351L1040 354.5C1051.17 351.5 1072.8 343.8 1070 337C1067.2 330.2 1091.83 315.5 1104.5 309L1150.5 332L1208 340.5C1214.33 335.667 1227.6 319.8 1230 295C1233 264 1257 327 1293 345.5C1321.8 360.3 1331.33 355.333 1332.5 351C1344.17 349.167 1374.7 340.5 1403.5 320.5C1420.5 306.5 1407 286.5 1403.5 261C1400 235.5 1383.5 247 1352 219Z" fill="#2D9CDB"/>
<path d="M1124 184.5L1103 172.5L1081.5 220L1103 205.5H1124V184.5Z" fill="#85D3F3"/>
<path d="M51 363.5L0.5 367.5C1 369.5 3 374.5 7 378.5C11 382.5 15 382.167 16.5 381.5H1574.5L1587 380L1595.5 372H1559C1551.67 370.333 1535.8 367.4 1531 369C1525 371 1474.5 372 1472 372C1469.5 372 1380.5 375 1372.5 372C1364.5 369 1277 368 1271 367C1265 366 1125 373 1119 372C1113 371 1087.5 369 1075.5 373C1073 379.5 919.5 372.5 917 373C914.5 373.5 767 373 748.5 370C733.7 367.6 708.667 366.667 698 366.5C687.167 367.333 664.8 369.2 662 370C658.5 371 635 370.5 627 366.5C620.6 363.3 566 365.167 539.5 366.5C523 366.667 488 366.3 480 363.5C470 360 369.5 363.5 360 363.5C350.5 363.5 322 361 310 363.5C298 366 278 365.5 264 363.5C252.8 361.9 215.333 365.5 198 367.5L96.5 363.5L70.5 367.5L51 363.5Z" fill="#597EA6"/>
</svg>
